# xmcd
#
# Track frame offsets: 
#        150
#        22345
#        43230
#        60152
#        78052
#        94150
#        123138
#        144773
#        157808
#        176007
#        192001
#        212200
#
# Disc length: 3023 seconds
#
# Revision: 0
# Processed by: cddbd v1.5.2PL0 Copyright (c) Steve Scherf et al.
# Submitted via: ExactAudioCopy v0.99pb3
#
DISCID=930bcd0c
DTITLE=Vance Kelly and His Backstrret Blues Band - What Three Old Ladie
DTITLE=s Can Do - Chicago Blues Session Vol 54
DYEAR=2001
DGENRE=Blues
TTITLE0=What Three Old Ladies Can Do
TTITLE1=Just Because
TTITLE2=Twenty Four Hours
TTITLE3=Foxy
TTITLE4=You Are Mine, Now I'm Your's Forever
TTITLE5=Highway Here I Come
TTITLE6=Candy Licker
TTITLE7=Don't Cry No More
TTITLE8=Ain't Doing Too Bad
TTITLE9=Somethin' About You Girl
TTITLE10=Jammin'
TTITLE11=Mon's Apple Pie
EXTD=
EXTT0=
EXTT1=
EXTT2=
EXTT3=
EXTT4=
EXTT5=
EXTT6=
EXTT7=
EXTT8=
EXTT9=
EXTT10=
EXTT11=
PLAYORDER=
